Coordinates
version=1
nRows=11
nColumns=40
inDegrees=yes

Units are S.I. units (second, meters, Newtons, ...)
Angles are in degrees.

endheader
time	pelvis_tilt	pelvis_list	pelvis_rotation	pelvis_tx	pelvis_ty	pelvis_tz	hip_flexion_r	hip_adduction_r	hip_rotation_r	knee_angle_r	knee_angle_r_beta	ankle_angle_r	subtalar_angle_r	mtp_angle_r	hip_flexion_l	hip_adduction_l	hip_rotation_l	knee_angle_l	knee_angle_l_beta	ankle_angle_l	subtalar_angle_l	mtp_angle_l	lumbar_extension	lumbar_bending	lumbar_rotation	arm_flex_r	arm_add_r	arm_rot_r	elbow_flex_r	pro_sup_r	wrist_flex_r	wrist_dev_r	arm_flex_l	arm_add_l	arm_rot_l	elbow_flex_l	pro_sup_l	wrist_flex_l	wrist_dev_l
     34.40500000	     -5.01552076	     -5.16662242	      3.58636539	      1.11433686	      0.92411754	      0.48548097	      2.30561117	      2.65458563	    -15.74800718	     11.44398258	     11.44398258	     15.30126116	      5.36975922	     -4.26218055	     28.93513789	     -7.86088526	     -1.68966716	     22.46204067	     22.46204067	      4.28611764	     -9.62362846	      5.21755565	     -9.68454273	      6.33408062	      3.82378966	     36.13692631	    -19.92758438	      4.15219069	     69.35061332	     44.78635980	      0.00000000	      0.00000000	     -6.96421798	     -8.80298660	     -5.73715611	     26.62996121	     46.56374010	      0.00000000	      0.00000000
     34.41850000	     -4.93092557	     -5.20914780	      3.40911874	      1.11579968	      0.92356638	      0.48346338	      1.77932328	      2.55765822	    -15.56318349	     11.54650344	     11.54650344	     15.59928648	      5.47317824	     -4.27120974	     28.43026908	     -7.77056016	     -1.55508482	     23.06646390	     23.06646390	      4.44156312	    -10.14690269	      5.11843107	     -9.56698811	      6.25080388	      3.81106852	     35.39102892	    -19.59600508	      4.33339392	     69.26971074	     44.78153149	      0.00000000	      0.00000000	     -6.80228199	     -8.99022135	     -5.82635304	     26.87085290	     46.57960438	      0.00000000	      0.00000000
     34.43200000	     -4.89760313	     -5.32933071	      3.28566685	      1.11707931	      0.92310394	      0.48123127	      1.34962971	      2.50378280	    -15.54496176	     11.70456319	     11.70456319	     15.97836972	      5.77034670	     -3.86797465	     28.09486872	     -7.62241922	     -0.87927027	     23.66994496	     23.66994496	      4.56463250	    -11.37945090	      5.24364352	     -9.44734690	      6.24025979	      3.92560562	     34.44749608	    -19.57877552	      4.35792557	     69.42053468	     44.78276416	      0.00000000	      0.00000000	     -6.66741294	     -9.12217753	     -6.19354466	     27.89109524	     46.63096700	      0.00000000	      0.00000000
     34.44550000	     -4.79539748	     -5.32923942	      3.15900947	      1.11842521	      0.92302920	      0.47883517	      0.88367591	      2.30775417	    -15.40812087	     11.92855538	     11.92855538	     16.13012633	      5.82210869	     -3.83911872	     27.67269456	     -7.48196193	     -0.71848649	     24.18951205	     24.18951205	      4.91639241	    -11.72605887	      5.08408397	     -9.39691894	      6.14555478	      3.78743499	     33.52124193	    -19.22075972	      4.55157817	     69.22105578	     44.78034934	      0.00000000	      0.00000000	     -6.34573964	     -9.32062464	     -6.26212269	     28.13235688	     46.64586557	      0.00000000	      0.00000000
     34.45900000	     -4.71135643	     -5.35624565	      3.04780090	      1.11956490	      0.92310047	      0.47627824	      0.53383384	      2.09742888	    -15.33505478	     12.30772452	     12.30772452	     16.27726667	      5.89257019	     -3.74685412	     27.35580207	     -7.34100447	     -0.45375228	     24.73360935	     24.73360935	      5.33701200	    -12.25029598	      4.98064934	     -9.37089754	      6.04723376	      3.71801336	     32.46846662	    -19.03584560	      4.68264778	     68.89521666	     44.78509957	      0.00000000	      0.00000000	     -5.92369479	     -9.51031545	     -6.37084799	     28.55604218	     46.66718853	      0.00000000	      0.00000000
     34.47250000	     -4.63654721	     -5.39392504	      2.96475961	      1.12064708	      0.92347280	      0.47354437	      0.22739963	      1.88024029	    -15.25866068	     12.72058917	     12.72058917	     16.30981966	      5.92561373	     -3.70577782	     26.99756148	     -7.20961665	     -0.23340633	     25.10227422	     25.10227422	      5.78155735	    -12.58816809	      4.85692705	     -9.33578486	      6.01353192	      3.55183616	     31.33887129	    -18.72842527	      4.87697884	     68.52713813	     44.78716762	      0.00000000	      0.00000000	     -5.39184454	     -9.64049163	     -6.42617778	     28.92287938	     46.68312117	      0.00000000	      0.00000000
     34.48600000	     -4.72712277	     -5.29252266	      2.80038700	      1.12136803	      0.92373857	      0.47053430	      0.54696764	      1.30512343	    -15.35978349	     14.00389441	     14.00389441	     16.66899228	      6.10181561	     -3.39374007	     26.80367773	     -6.87680122	      0.02483205	     25.42472698	     25.42472698	      6.27114630	    -13.30601076	      5.25404378	     -9.17571819	      5.80149993	      3.95134940	     29.89219276	    -18.99659539	      4.68110861	     67.66577125	     44.82683390	      0.00000000	      0.00000000	     -4.76275719	     -9.77355194	     -6.68328131	     30.08244558	     46.72207551	      0.00000000	      0.00000000
     34.49950000	     -4.59772684	     -5.36431035	      2.72771463	      1.12233491	      0.92457439	      0.46749957	      0.31523246	      1.06576736	    -15.29894928	     14.62087683	     14.62087683	     16.54041942	      6.08338904	     -3.36289414	     26.33727061	     -6.79243057	      0.10788746	     25.64243717	     25.64243717	      6.76741811	    -13.48400713	      5.14340953	     -9.24793656	      5.84060637	      3.64385982	     28.59931824	    -18.59260941	      4.89889836	     67.20256174	     44.83045699	      0.00000000	      0.00000000	     -4.18800216	     -9.91255338	     -6.71750710	     30.43548330	     46.73495657	      0.00000000	      0.00000000
     34.51300000	     -4.66574208	     -5.18951873	      2.48267947	      1.12291050	      0.92516774	      0.46434908	      0.93277933	      0.30877715	    -15.19872305	     16.45549452	     16.45549452	     16.69793804	      5.94839709	     -3.52878753	     25.97683318	     -6.49637614	     -0.11584346	     25.73284325	     25.73284325	      7.31660009	    -13.57971838	      5.28489420	     -9.15231854	      5.56334961	      3.97025965	     27.12613171	    -18.75423097	      4.84821198	     65.97261700	     44.87378634	      0.00000000	      0.00000000	     -3.40554953	    -10.04507733	     -6.82556344	     31.39109376	     46.75676732	      0.00000000	      0.00000000
     34.52650000	     -4.67877474	     -5.13649698	      2.27789770	      1.12348244	      0.92590410	      0.46121148	      1.48465866	     -0.28828933	    -15.03913162	     18.22222551	     18.22222551	     16.64465096	      5.75073464	     -3.78513304	     25.53855228	     -6.33140870	     -0.32583579	     25.75990961	     25.75990961	      7.85895271	    -13.53845023	      5.38505208	     -9.09717277	      5.43274953	      4.03575112	     25.67167538	    -18.60926153	      4.84232270	     64.75745606	     44.91496670	      0.00000000	      0.00000000	     -2.71580753	    -10.17059117	     -6.86388901	     32.27204346	     46.76683419	      0.00000000	      0.00000000
     34.54000000	     -4.63323084	     -5.08068187	      2.05898471	      1.12398577	      0.92676523	      0.45801677	      2.14409266	     -0.92673410	    -14.77129272	     20.27012648	     20.27012648	     16.45939295	      5.35757959	     -4.26387139	     24.97795271	     -6.18780169	     -0.70491543	     25.69863689	     25.69863689	      8.35367058	    -13.39749698	      5.37000150	     -9.13080485	      5.34320162	      4.02118082	     24.19676410	    -18.45311549	      4.91959037	     63.50124334	     44.95273103	      0.00000000	      0.00000000	     -1.96898316	    -10.32685770	     -6.87296935	     33.09973923	     46.77557394	      0.00000000	      0.00000000
